HIERARCHY
ROOT Hips
{
	OFFSET 0.000000 0.000000 0.000000
	CHANNELS 6 Xposition Yposition Zposition Yrotation Xrotation Zrotation
	JOINT Chest
	{
		OFFSET 0.000000 -0.009281 11.569106
		CHANNELS 3 Yrotation Xrotation Zrotation
		JOINT Chest2
		{
			OFFSET -0.000000 0.016865 9.269641
			CHANNELS 3 Yrotation Xrotation Zrotation
			JOINT Chest3
			{
				OFFSET -0.000000 0.000001 8.374491
				CHANNELS 3 Yrotation Xrotation Zrotation
				JOINT Chest4
				{
					OFFSET -0.000000 0.000001 8.374493
					CHANNELS 3 Yrotation Xrotation Zrotation
					JOINT Neck
					{
						OFFSET -0.000000 0.000002 12.152554
						CHANNELS 3 Yrotation Xrotation Zrotation
						JOINT Head
						{
							OFFSET -0.000000 0.040101 7.802319
							CHANNELS 3 Yrotation Xrotation Zrotation
							End Site
							{
								OFFSET -0.000000 0.020947 14.853096
							}
						}
					}
					JOINT RightCollar
					{
						OFFSET 2.894404 0.000001 6.791374
						CHANNELS 3 Yrotation Xrotation Zrotation
						JOINT RightShoulder
						{
							OFFSET 13.574684 0.000001 0.000000
							CHANNELS 3 Yrotation Xrotation Zrotation
							JOINT RightElbow
							{
								OFFSET 23.923903 0.000002 0.000000
								CHANNELS 3 Yrotation Xrotation Zrotation
								JOINT RightWrist
								{
									OFFSET 19.846718 0.012767 0.000000
									CHANNELS 3 Yrotation Xrotation Zrotation
									End Site
									{
										OFFSET 14.973145 0.000001 0.000000
									}
								}
							}
						}
					}
					JOINT LeftCollar
					{
						OFFSET -2.894404 0.000001 6.791374
						CHANNELS 3 Yrotation Xrotation Zrotation
						JOINT LeftShoulder
						{
							OFFSET -13.574684 -0.000001 0.000000
							CHANNELS 3 Yrotation Xrotation Zrotation
							JOINT LeftElbow
							{
								OFFSET -23.923903 -0.000002 0.000000
								CHANNELS 3 Yrotation Xrotation Zrotation
								JOINT LeftWrist
								{
									OFFSET -19.846718 0.012763 0.000000
									CHANNELS 3 Yrotation Xrotation Zrotation
									End Site
									{
										OFFSET -14.973145 -0.000001 0.000000
									}
								}
							}
						}
					}
				}
			}
		}
	}
	JOINT RightHip
	{
		OFFSET 9.469263 0.004643 0.045487
		CHANNELS 3 Yrotation Xrotation Zrotation
		JOINT RightKnee
		{
			OFFSET 0.000000 0.002661 -40.478676
			CHANNELS 3 Yrotation Xrotation Zrotation
			JOINT RightAnkle
			{
				OFFSET 0.000000 0.049106 -35.224068
				CHANNELS 3 Yrotation Xrotation Zrotation
				JOINT RightToe
				{
					OFFSET -0.000001 12.539529 -6.151390
					CHANNELS 3 Yrotation Xrotation Zrotation
					End Site
					{
						OFFSET -0.000001 5.044994 -1.291870
					}
				}
			}
		}
	}
	JOINT LeftHip
	{
		OFFSET -9.469263 0.004641 0.045487
		CHANNELS 3 Yrotation Xrotation Zrotation
		JOINT LeftKnee
		{
			OFFSET 0.000000 0.002661 -40.478676
			CHANNELS 3 Yrotation Xrotation Zrotation
			JOINT LeftAnkle
			{
				OFFSET 0.000000 0.049106 -35.224068
				CHANNELS 3 Yrotation Xrotation Zrotation
				JOINT LeftToe
				{
					OFFSET -0.000001 12.539529 -6.151390
					CHANNELS 3 Yrotation Xrotation Zrotation
					End Site
					{
						OFFSET -0.000001 5.044994 -1.291870
					}
				}
			}
		}
	}
}
MOTION
Frames: 16
Frame Time: 0.016667
10.747783 6.602453 83.049583 -6.080942 -2.255097 -109.006561 -0.046478 -3.987697 0.879701 -0.017764 -1.771569 0.389265 -0.017764 -1.771569 0.389265 -0.012193 -1.328689 0.291874 0.539458 -15.775159 -2.572239 0.061329 6.867769 -4.597471 4.225291 19.588499 -3.809753 35.554208 55.145281 30.067227 32.057602 -1.827146 75.494784 -21.189289 23.767600 18.952976 -4.957466 16.540078 -2.169457 -35.897138 52.494966 -31.418556 -21.073429 4.957424 -69.684896 11.812099 33.057801 -18.767208 -0.608930 -7.055912 -3.176261 1.661845 -4.371198 -5.950709 -0.920303 4.483982 1.857241 0.035177 -0.000470 -0.018422 -0.563565 -8.300074 0.540671 0.463493 -2.479425 2.206193 0.074362 4.495174 1.419450 -0.004597 -0.006402 0.017972 
10.775540 6.583811 83.048470 -6.103758 -2.263898 -108.994936 -0.037863 -4.004349 0.865287 -0.013381 -1.778586 0.382360 -0.013381 -1.778586 0.382364 -0.008922 -1.333948 0.286712 0.520213 -15.762121 -2.559620 0.029655 6.891618 -4.581287 4.367439 19.874175 -3.613594 35.029168 55.044658 29.787684 28.613093 -1.846969 75.073696 -24.005316 21.410365 19.600141 -4.925009 16.529374 -2.063115 -35.395150 52.255496 -30.860980 -22.379955 4.695341 -70.262033 8.460848 38.970474 -17.901019 -0.606015 -7.100770 -3.157302 1.675550 -4.381657 -5.962524 -0.936218 4.511373 1.836625 0.031551 0.000005 -0.018736 -0.553663 -8.350071 0.541603 0.462196 -2.475096 2.201392 0.071135 4.519598 1.411740 -0.004958 -0.009872 0.018710 
10.800495 6.569330 83.046120 -6.120635 -2.273549 -108.998010 -0.044770 -4.027573 0.865127 -0.014974 -1.788499 0.382633 -0.014974 -1.788500 0.382634 -0.010110 -1.341385 0.286908 0.530618 -15.724304 -2.562646 0.046688 6.962099 -4.583901 4.422144 19.903443 -3.583611 35.040458 55.181440 29.844344 28.384226 -2.146567 74.992151 -24.655115 21.747215 19.863531 -5.024402 16.516600 -2.271861 -34.745770 52.090752 -30.097041 -28.178207 4.978569 -71.874859 4.712401 41.599807 -17.399591 -0.605869 -7.132462 -3.170900 1.688644 -4.400509 -5.935774 -0.949096 4.542043 1.817296 0.027007 -0.003159 -0.019044 -0.549786 -8.381638 0.531087 0.466005 -2.496646 2.215301 0.075146 4.558838 1.414006 -0.010533 -0.015246 0.018465 
10.822302 6.557951 83.043854 -6.134856 -2.280809 -109.000995 -0.049164 -4.053709 0.871072 -0.015378 -1.800136 0.386054 -0.015378 -1.800136 0.386055 -0.010396 -1.350113 0.289476 0.540961 -15.680272 -2.575345 0.059849 7.043894 -4.604687 4.236570 19.701477 -3.880259 35.630980 55.181672 30.206874 31.312452 -2.187360 75.437814 -22.870281 23.567163 19.593661 -5.017991 16.491355 -2.299052 -34.768689 51.928391 -29.943228 -35.522632 5.315563 -73.667340 2.263616 40.529875 -17.101134 -0.609174 -7.156531 -3.220587 1.698752 -4.424323 -5.871998 -0.961878 4.574816 1.812503 0.024811 -0.008070 -0.018854 -0.553860 -8.398038 0.513647 0.476796 -2.536704 2.230188 0.083170 4.603282 1.435655 -0.018683 -0.019076 0.017106 
10.841885 6.548332 83.042801 -6.145683 -2.281893 -109.005154 -0.045866 -4.067778 0.885964 -0.013520 -1.806548 0.393291 -0.013520 -1.806549 0.393290 -0.008977 -1.354921 0.294904 0.532129 -15.651126 -2.592708 0.036016 7.097287 -4.640951 4.112447 19.431079 -4.029383 35.955499 54.960893 30.314852 35.400659 -1.760819 76.286759 -19.638008 25.020547 18.803596 -4.939486 16.277343 -2.239989 -35.413452 52.060457 -30.454048 -40.605652 5.379615 -74.794560 1.814028 39.538531 -17.098909 -0.617929 -7.172118 -3.278227 1.711830 -4.451207 -5.812376 -0.979252 4.608171 1.813004 0.024966 -0.012459 -0.018247 -0.557650 -8.408575 0.515424 0.479919 -2.573551 2.222639 0.093814 4.641420 1.448909 -0.024436 -0.019834 0.015851 
10.860085 6.537963 83.042686 -6.148447 -2.273565 -109.006022 -0.040669 -4.064503 0.903705 -0.012535 -1.805091 0.401063 -0.012535 -1.805091 0.401066 -0.008215 -1.353826 0.300735 0.514513 -15.644893 -2.604043 -0.001225 7.107965 -4.668734 4.259379 19.372882 -3.759280 35.522280 54.741699 29.853988 39.092373 -1.188116 77.095029 -16.207798 26.305031 17.929689 -4.928542 16.133047 -2.276260 -36.062145 52.266042 -31.064096 -41.059884 5.370097 -74.895347 3.599072 39.569140 -17.641948 -0.629883 -7.173436 -3.321016 1.723112 -4.484210 -5.773614 -0.999299 4.644170 1.805391 0.027986 -0.015584 -0.017950 -0.565300 -8.411953 0.539189 0.481016 -2.600032 2.206703 0.100037 4.669632 1.450187 -0.025347 -0.017234 0.016790 
10.880776 6.525047 83.043259 -6.141675 -2.266567 -109.001268 -0.039579 -4.051745 0.908077 -0.013111 -1.799272 0.402595 -0.013111 -1.799273 0.402596 -0.008647 -1.349463 0.301886 0.503635 -15.654785 -2.597909 -0.018917 7.089374 -4.661094 4.424999 19.417659 -3.478184 35.156387 54.787488 29.569726 41.542382 -0.833259 77.332351 -13.303035 28.004472 17.459248 -4.949446 16.212077 -2.316950 -36.279817 52.256415 -31.299311 -37.850771 5.621073 -74.217655 6.602287 38.874995 -18.409732 -0.633250 -7.178478 -3.343359 1.732450 -4.495911 -5.753143 -1.023491 4.669163 1.795387 0.033569 -0.015677 -0.016714 -0.560232 -8.416250 0.561427 0.472564 -2.610118 2.192332 0.104935 4.691853 1.440267 -0.023328 -0.015564 0.017461 
10.906569 6.507723 83.044762 -6.135176 -2.260439 -108.997047 -0.042177 -4.041233 0.897283 -0.014973 -1.794463 0.397087 -0.014973 -1.794463 0.397086 -0.010062 -1.345858 0.297744 0.495358 -15.666253 -2.574132 -0.025212 7.068377 -4.619539 4.383612 19.551973 -3.560043 35.332965 54.874426 29.782985 41.371904 -0.980221 76.993301 -12.705145 29.464531 17.922066 -4.979682 16.429147 -2.358284 -36.124604 52.157988 -31.274658 -33.156252 5.971254 -72.937999 9.659399 36.764023 -18.999223 -0.632223 -7.193892 -3.326869 1.738930 -4.494728 -5.759379 -1.042619 4.689739 1.783286 0.035215 -0.013595 -0.016559 -0.552841 -8.432857 0.579267 0.464367 -2.604423 2.179350 0.104620 4.706670 1.430777 -0.018977 -0.011248 0.018419 
10.936529 6.488523 83.046265 -6.128111 -2.252664 -108.996910 -0.033837 -4.032486 0.877670 -0.011422 -1.790645 0.387949 -0.011422 -1.790645 0.387951 -0.007429 -1.342992 0.290909 0.468265 -15.667793 -2.542410 -0.064011 7.065365 -4.570330 4.236079 19.578365 -3.810848 35.601050 54.997366 30.021376 38.371460 -1.493586 76.469896 -15.858922 28.426979 18.389082 -4.976384 16.545215 -2.305500 -35.904307 52.169839 -31.251052 -29.287803 5.925636 -71.621425 11.705483 35.806099 -19.052155 -0.630187 -7.214935 -3.290519 1.744673 -4.485279 -5.783382 -1.057183 4.708935 1.750634 0.032535 -0.011207 -0.017372 -0.548123 -8.460694 0.599681 0.458626 -2.580518 2.169783 0.099893 4.714173 1.423473 -0.013452 -0.006299 0.019029 
10.967305 6.467572 83.046478 -6.127621 -2.249024 -108.995100 -0.013620 -4.029251 0.853027 -0.002714 -1.789178 0.376370 -0.002714 -1.789178 0.376374 -0.000932 -1.341886 0.282247 0.427853 -15.646411 -2.512997 -0.129261 7.104391 -4.530829 4.257677 19.708246 -3.780894 35.313560 55.056700 29.815982 34.325648 -1.825662 75.993176 -20.399214 25.188177 18.606405 -4.931396 16.550129 -2.145727 -35.751669 52.148146 -31.105805 -28.152213 5.588167 -71.216504 11.468899 39.191714 -18.442102 -0.628894 -7.243510 -3.259625 1.749420 -4.477193 -5.804614 -1.067081 4.730427 1.745925 0.029455 -0.010161 -0.016982 -0.542391 -8.493317 0.599514 0.454800 -2.565037 2.175305 0.094727 4.729967 1.425105 -0.009970 -0.004625 0.018977 
10.996694 6.450350 83.044815 -6.126701 -2.250343 -109.006855 -0.002356 -4.029064 0.834743 0.002911 -1.789117 0.368107 0.002911 -1.789117 0.368104 0.003262 -1.341836 0.276065 0.407422 -15.600905 -2.494563 -0.162103 7.188621 -4.504986 4.400569 19.956850 -3.579873 34.857659 55.061915 29.592976 30.593886 -1.883995 75.477053 -23.790275 22.389599 19.156990 -4.933655 16.487030 -2.111737 -35.535743 52.104023 -30.740028 -30.636561 5.529171 -72.005152 9.075483 43.715362 -17.830810 -0.628112 -7.268115 -3.241675 1.759844 -4.475052 -5.812718 -1.077797 4.755333 1.751113 0.025032 -0.011694 -0.017260 -0.535052 -8.519482 0.591766 0.449577 -2.565367 2.187884 0.095625 4.758094 1.426151 -0.009921 -0.007117 0.018689 
11.022198 6.436641 83.041397 -6.122478 -2.256233 -109.034927 -0.003117 -4.027670 0.832673 0.004094 -1.788530 0.367482 0.004094 -1.788530 0.367479 0.004146 -1.341396 0.275600 0.417031 -15.547763 -2.493863 -0.145692 7.287621 -4.501301 4.404548 19.907795 -3.607397 35.075419 55.246675 29.838815 29.383406 -2.186200 75.247443 -25.070635 22.270255 19.520606 -5.011681 16.445784 -2.257024 -35.438215 52.173845 -30.453788 -35.817287 5.678123 -73.457038 6.426578 45.460564 -17.427412 -0.629691 -7.279664 -3.247877 1.772574 -4.486597 -5.786224 -1.086217 4.784459 1.756610 0.019706 -0.015884 -0.018736 -0.527250 -8.531464 0.590520 0.442544 -2.590155 2.204825 0.103797 4.801619 1.440218 -0.012401 -0.012678 0.018986 
11.046284 6.425561 83.038040 -6.124130 -2.259258 -109.067131 -0.010870 -4.029497 0.843598 0.001984 -1.789263 0.373437 0.001984 -1.789263 0.373439 0.002581 -1.341946 0.280061 0.440781 -15.500232 -2.510610 -0.109155 7.376268 -4.524813 4.235376 19.698056 -3.899416 35.699333 55.251285 30.235963 31.518393 -2.282094 75.564555 -23.731542 24.067918 19.456788 -5.037242 16.390506 -2.326312 -35.859104 52.360210 -30.664903 -40.954661 5.790187 -74.706676 4.570867 44.986621 -17.263317 -0.631585 -7.293659 -3.276073 1.772857 -4.499687 -5.727993 -1.090959 4.816818 1.753764 0.016381 -0.023699 -0.019942 -0.527458 -8.539924 0.581334 0.438156 -2.628579 2.229880 0.114599 4.847951 1.460345 -0.016824 -0.015550 0.018338 
11.071236 6.414845 83.035889 -6.125589 -2.256351 -109.099943 -0.013098 -4.016897 0.863347 0.000996 -1.783600 0.383711 0.000996 -1.783600 0.383713 0.001868 -1.337700 0.287763 0.454755 -15.478155 -2.534205 -0.092559 7.417151 -4.564170 4.163869 19.392224 -3.984732 36.004762 55.105850 30.315504 35.196153 -1.928656 76.312522 -20.652926 25.436811 18.971810 -5.051651 16.255437 -2.366895 -36.537814 52.729518 -31.199751 -43.341659 5.813664 -75.185438 4.189948 44.741895 -17.267331 -0.636771 -7.312614 -3.323743 1.766758 -4.499250 -5.652828 -1.095838 4.841636 1.754154 0.015772 -0.030102 -0.019992 -0.535680 -8.548191 0.582705 0.438739 -2.663185 2.230873 0.125437 4.889331 1.482605 -0.021322 -0.015220 0.017223 
11.097795 6.402178 83.034760 -6.123519 -2.252421 -109.125256 -0.014139 -3.995599 0.886750 -0.000242 -1.773943 0.395266 -0.000242 -1.773943 0.395268 0.000966 -1.330458 0.296430 0.467302 -15.478027 -2.559296 -0.078442 7.417201 -4.606360 4.329736 19.294005 -3.697584 35.668863 54.983176 29.891780 38.563641 -1.435862 77.060619 -17.316305 26.458505 18.262594 -5.062767 16.182752 -2.394883 -36.966790 52.948757 -31.618916 -42.261010 5.899421 -74.830132 5.763189 44.108231 -17.587983 -0.636307 -7.334322 -3.372133 1.758572 -4.491326 -5.595464 -1.105156 4.864788 1.752825 0.018409 -0.034483 -0.019526 -0.537268 -8.558991 0.593816 0.432322 -2.686005 2.228321 0.135477 4.924180 1.485538 -0.023095 -0.013687 0.017297 
11.126856 6.386948 83.034630 -6.113342 -2.250346 -109.144189 -0.011058 -3.973962 0.895842 0.001086 -1.764371 0.399909 0.001086 -1.764371 0.399910 0.001969 -1.323277 0.299913 0.480716 -15.482937 -2.570738 -0.057477 7.408263 -4.622643 4.520355 19.384473 -3.370347 35.258823 55.025766 29.505642 41.041292 -1.075786 77.326648 -14.271329 27.725512 17.725026 -5.077938 16.314308 -2.360683 -36.843587 52.816166 -31.567703 -38.547361 6.126979 -73.822016 8.668611 41.849812 -18.020501 -0.628892 -7.357179 -3.402145 1.749348 -4.469923 -5.554338 -1.114259 4.880746 1.742973 0.020817 -0.035798 -0.019408 -0.532499 -8.571937 0.610107 0.424100 -2.693911 2.227266 0.144696 4.953510 1.493615 -0.023458 -0.012179 0.017799 
